<?xml version="1.0" encoding="UTF-8" standalone="no"?>
<!-- Created with Inkscape (http://www.inkscape.org/) -->

<svg
   width="385.47299"
   height="385.42065"
   viewBox="0 0 385.47299 385.42066"
   id="svg2"
   version="1.1"
   inkscape:version="1.3.2 (091e20e, 2023-11-25, custom)"
   sodipodi:docname="Seal_of_the_Department_of_Environment_and_Natural_Resources.svg"
   xml:space="preserve"
   xmlns:inkscape="http://www.inkscape.org/namespaces/inkscape"
   xmlns:sodipodi="http://sodipodi.sourceforge.net/DTD/sodipodi-0.dtd"
   xmlns="http://www.w3.org/2000/svg"
   xmlns:svg="http://www.w3.org/2000/svg"
   xmlns:rdf="http://www.w3.org/1999/02/22-rdf-syntax-ns#"
   xmlns:cc="http://creativecommons.org/ns#"
   xmlns:dc="http://purl.org/dc/elements/1.1/"><title
     id="title6958">Department of Environment and Natural Resources ( DENR )</title><defs
     id="defs4"><clipPath
       clipPathUnits="userSpaceOnUse"
       id="clipPath4451"><circle
         style="display:inline;fill:none;stroke:#000000;stroke-width:1px;stroke-linecap:butt;stroke-linejoin:miter;stroke-opacity:1"
         id="circle4453"
         cx="372.04724"
         cy="530.11328"
         r="228.29448" /></clipPath><clipPath
       clipPathUnits="userSpaceOnUse"
       id="clipPath4458"><circle
         clip-path="none"
         r="201.66658"
         cy="529.64648"
         cx="371.81357"
         id="circle4460"
         style="display:inline;opacity:0.449;fill:none;stroke:#ed1c24;stroke-width:1px;stroke-linecap:butt;stroke-linejoin:miter;stroke-opacity:1" /></clipPath></defs><sodipodi:namedview
     id="base"
     pagecolor="#ffffff"
     bordercolor="#666666"
     borderopacity="1.0"
     inkscape:pageopacity="0.0"
     inkscape:pageshadow="2"
     inkscape:zoom="0.5285715"
     inkscape:cx="662.16207"
     inkscape:cy="246.89186"
     inkscape:document-units="px"
     inkscape:current-layer="layer5"
     showgrid="false"
     inkscape:object-paths="false"
     inkscape:snap-intersection-paths="false"
     inkscape:object-nodes="false"
     inkscape:snap-smooth-nodes="false"
     inkscape:snap-global="true"
     showguides="true"
     inkscape:guide-bbox="true"
     inkscape:window-width="1920"
     inkscape:window-height="1017"
     inkscape:window-x="-8"
     inkscape:window-y="-8"
     inkscape:window-maximized="1"
     units="px"
     fit-margin-top="0"
     fit-margin-left="0"
     fit-margin-right="0"
     fit-margin-bottom="0"
     inkscape:snap-nodes="true"
     inkscape:snap-object-midpoints="true"
     inkscape:snap-center="true"
     inkscape:snap-bbox="true"
     inkscape:snap-bbox-midpoints="true"
     inkscape:showpageshadow="2"
     inkscape:pagecheckerboard="0"
     inkscape:deskcolor="#d1d1d1" /><metadata
     id="metadata7"><rdf:RDF><cc:Work
         rdf:about=""><dc:format>image/svg+xml</dc:format><dc:type
           rdf:resource="http://purl.org/dc/dcmitype/StillImage" /><dc:title>Department of Environment and Natural Resources ( DENR )</dc:title></cc:Work></rdf:RDF></metadata><g
     inkscape:groupmode="layer"
     id="layer5"
     inkscape:label="Blue"
     transform="translate(269.46647,-443.46274)"><g
       aria-label="DEPARTMENT OF ENVIRONMENT AND NATURAL RESOURCES"
       style="font-style:normal;font-variant:normal;font-weight:500;font-stretch:normal;font-size:26.6667px;line-height:25;font-family:'EB Garamond';-inkscape-font-specification:'EB Garamond Medium';font-variant-ligatures:normal;font-variant-caps:normal;font-variant-numeric:normal;font-feature-settings:normal;text-align:center;letter-spacing:3px;word-spacing:5px;writing-mode:lr-tb;text-anchor:middle;opacity:1;fill:#006c35;fill-opacity:1;fill-rule:nonzero;stroke:#000000;stroke-width:0.1;stroke-linecap:square;stroke-linejoin:bevel;stroke-miterlimit:4;stroke-dasharray:none;stroke-dashoffset:0;stroke-opacity:1"
       id="text1790" /><g
       aria-label="1987"
       style="font-style:normal;font-variant:normal;font-weight:normal;font-stretch:normal;font-size:32px;line-height:0;font-family:'Times New Roman';-inkscape-font-specification:'Times New Roman, ';font-variant-ligatures:normal;font-variant-caps:normal;font-variant-numeric:normal;font-feature-settings:normal;text-align:center;writing-mode:lr-tb;text-anchor:middle;opacity:1;fill:#006c35;fill-opacity:1;fill-rule:nonzero;stroke:#000000;stroke-width:0.1;stroke-linecap:square;stroke-linejoin:bevel;stroke-miterlimit:4;stroke-dasharray:none;stroke-dashoffset:0;stroke-opacity:1"
       id="text1797" /><g
       id="g3"
       transform="translate(-887.29718,87.027014)"><path
         id="path6617"
         style="color:#000000;display:inline;overflow:visible;visibility:visible;opacity:0.98;fill:#ffffff;fill-opacity:1;fill-rule:nonzero;stroke:none;stroke-width:2.70234;marker:none;enable-background:accumulate"
         d="M 810.58266,356.43573 A 192.70621,192.7052 0 0 0 617.87563,549.14082 192.70621,192.7052 0 0 0 810.58266,741.84592 192.70621,192.7052 0 0 0 1003.2897,549.14082 192.70621,192.7052 0 0 0 810.58266,356.43573 Z" /><g
         id="g2"
         transform="translate(-49.072502,13.962055)"><path
           style="display:inline;fill:#004ad6;fill-opacity:1;fill-rule:evenodd;stroke:none;stroke-width:0.957158"
           d="m 859.6551,342.47368 c -32.52644,0 -63.17471,7.95039 -90.05099,21.98273 l 13.91423,8.64455 v -12.03108 c 5.94108,-0.97099 12.06103,-1.48532 18.28125,-1.48532 6.22018,0 12.31003,0.51433 18.25114,1.48532 v 12.03108 l 14.12505,-8.76338 c 9.01021,2.70854 17.51321,6.50731 25.38897,11.25872 l -39.51402,24.59688 v 18.80414 l 53.57883,-33.33056 c 6.02266,5.05808 11.48328,10.72915 16.29351,16.93264 l -69.87234,43.49014 v 18.80414 l 78.72685,-48.95612 c 3.7897,6.72187 6.88684,13.86279 9.1858,21.35889 l -87.91265,54.68945 v 18.80413 l 91.55685,-56.94712 c 0.69517,4.94424 1.08423,9.98671 1.08423,15.12054 0,3.949 -0.21876,7.83387 -0.63247,11.67461 l -92.00861,57.24419 v 15.38791 h 5.48136 l 81.88918,-50.91674 c -3.12332,9.62034 -7.5593,18.65795 -13.10106,26.91398 h 24.66613 133.38986 C 1050.5725,425.80467 964.97966,342.47368 859.6551,342.47368 Z m -112.00656,35.3803 c -4.65504,3.28384 -9.12897,6.78691 -13.46247,10.45665 l 49.33227,30.68669 v -18.80414 z m -30.59926,26.85457 c -3.6505,3.95814 -7.14534,8.07573 -10.45073,12.32815 l 76.91979,47.85698 v -18.80414 z m -17.58855,22.13126 c -20.56037,30.23809 -32.5569,66.61039 -32.5569,105.7547 0,6.99089 -0.0478,13.7723 0.69776,20.56768 l 63.57274,0.10797 c -16.14583,-13.17747 -28.45646,-30.77263 -34.9964,-50.91674 l 81.85905,50.91674 h 5.48136 v -15.38791 l -91.97849,-57.24419 c -0.41372,-3.84075 -0.63245,-7.72561 -0.63246,-11.67461 1e-5,-5.13382 0.35894,-10.1763 1.05411,-15.12054 l 91.55684,56.94712 V 491.9859 l -87.88252,-54.68945 c 1.09518,-3.57101 2.38116,-7.04955 3.82491,-10.45664 z m 245.54703,121.5585 c -17.48596,0.0179 -37.86083,0.053 -62.10204,0.14853 l -38.77399,20.37858 -174.52708,0.27469 c 1.88813,11.4817 4.42084,21.24556 8.36289,31.96722 l 166.14698,0.16778 38.7912,-18.09119 h 36.08062 l 127.84506,-3e-5 c 2.0153,-11.1798 5.1671,-22.7501 5.1671,-34.66779 -27.6961,0 -54.53285,-0.23153 -106.99074,-0.17776 z m -62.10204,54.12503 -38.7912,20.73505 -156.66795,-0.1731 c 2.8125,5.36948 5.3859,10.13982 8.50024,14.93934 3.95262,6.09138 6.88852,11.39059 12.30156,17.28721 l 135.86615,-0.0299 38.7912,-18.09119 h 36.08062 l 104.95616,-3e-5 c 1.7272,-2.40994 1.9034,-3.11929 3.9521,-6.63604 1.7049,-2.92665 3.7176,-6.85169 5.2809,-9.97651 1.5809,-3.15983 3.4649,-7.13507 4.8068,-10.594 1.0564,-2.72321 1.5999,-4.9067 2.9243,-7.46079 z m 0,53.94678 -38.7912,20.76456 H 728.524 c 13.90225,13.11897 32.38755,24.12186 49.67806,32.82419 l 65.91246,-0.0281 38.7912,-18.06148 h 36.08062 l 53.37659,2e-5 c 12.79421,-10.24896 28.30517,-22.17114 37.82227,-35.49915 z m 0,54.77857 -30.76117,16.44821 c 1.0169,-0.54375 20.29384,-0.80926 26.94509,-0.80926 32.81692,-6.7703 35.94601,-7.49585 59.44183,-15.63895 z"
           id="path3350"
           inkscape:connector-curvature="0"
           sodipodi:nodetypes="scccscccccccccccccccsccccccccscccccccccccscccccccscccccccccccccccsccccscccccssscccccccccccccsccc" /><path
           style="display:inline;fill:#249200;fill-opacity:1;fill-rule:evenodd;stroke:none;stroke-width:0.957158"
           d="m 944.98649,548.39831 c -17.4845,0.0179 -37.82758,0.0822 -62.06677,0.17779 l -38.78798,20.34958 -174.52709,0.27443 c 1.88817,11.48288 4.4204,21.24472 8.36267,31.96722 l 166.16434,0.19772 38.78806,-18.09145 h 36.07763 l 127.83405,-0.0297 c 2.2822,-7.915 5.1671,-22.73805 5.1671,-34.66784 -27.6938,0 -54.55846,-0.23155 -107.01201,-0.17774 z m -62.09689,54.15473 -38.75786,20.70538 -156.68516,-0.17313 c 4.26638,8.58143 6.74728,11.98774 9.5893,16.64578 2.65569,4.35264 5.41671,8.97727 11.14264,15.58077 h 135.95322 l 38.78798,-18.0915 h 36.07763 l 104.94515,-0.0297 c 7.114,-11.2929 13.3961,-22.48033 16.9641,-34.66734 z m 0,53.94679 -38.75786,20.73505 -115.36352,-2e-4 c 14.45545,15.2212 32.91385,25.33033 49.43385,32.82419 l 65.92967,9.5e-4 38.78798,-18.09074 h 36.07763 53.36558 c 15.05836,-10.07838 28.31857,-22.18896 37.82227,-35.49915 z m 0,54.74886 -30.74493,16.44821 c 34.01716,1.52867 63.76916,-5.99716 86.3868,-16.44821 z"
           id="path3350-5-8"
           inkscape:connector-curvature="0"
           sodipodi:nodetypes="ccccccccccsccccsccccccccccccccccccccc" /></g></g></g><g
     inkscape:groupmode="layer"
     id="layer3"
     inkscape:label="Tree"
     style="display:inline"
     transform="translate(269.46647,-443.46274)" /><g
     inkscape:groupmode="layer"
     id="layer2"
     inkscape:label="Green"
     style="display:inline"
     transform="translate(269.46647,-443.46274)" /><g
     inkscape:groupmode="layer"
     id="layer4"
     inkscape:label="Lines"
     style="display:inline"
     transform="translate(269.46647,-443.46274)" /></svg>
